<svg xmlns="http://www.w3.org/2000/svg" viewBox="0 0 900 560">
<defs><linearGradient id="g" x1="0" x2="1" y1="0" y2="1"><stop stop-color="#081326"/><stop offset="1" stop-color="#0f2b42"/></linearGradient><radialGradient id="r" cx="50%" cy="55%" r="55%"><stop stop-color="#ef3737" stop-opacity=".55"/><stop offset="1" stop-color="#000" stop-opacity="0"/></radialGradient><filter id="glow"><feGaussianBlur stdDeviation="8" result="b"/><feMerge><feMergeNode in="b"/><feMergeNode in="SourceGraphic"/></feMerge></filter></defs>
<rect width="900" height="560" fill="url(#g)"/><circle cx="450" cy="300" r="360" fill="url(#r)"/>
<path d="M90 380 C160 205 730 205 810 380 C735 520 175 520 90 380Z" fill="#111d2d" stroke="#ffffff" stroke-width="8" opacity=".95"/>
<ellipse cx="450" cy="378" rx="300" ry="105" fill="#071422" stroke="#6b7e99" stroke-width="3"/>
<ellipse cx="450" cy="368" rx="230" ry="68" fill="#1d9b58" stroke="#ddfff0" stroke-width="4"/>
<path d="M220 300 C300 235 600 235 680 300" fill="none" stroke="#ffffff" stroke-width="34" stroke-linecap="round" opacity=".75" filter="url(#glow)"/>
<g fill="#dfefff" opacity=".8"><circle cx="120" cy="360" r="4"/><circle cx="153" cy="360" r="4"/><circle cx="186" cy="360" r="4"/><circle cx="219" cy="360" r="4"/><circle cx="252" cy="360" r="4"/><circle cx="285" cy="360" r="4"/><circle cx="318" cy="360" r="4"/><circle cx="351" cy="360" r="4"/><circle cx="384" cy="360" r="4"/><circle cx="417" cy="360" r="4"/><circle cx="450" cy="360" r="4"/><circle cx="483" cy="360" r="4"/><circle cx="516" cy="360" r="4"/><circle cx="549" cy="360" r="4"/><circle cx="582" cy="360" r="4"/><circle cx="615" cy="360" r="4"/><circle cx="648" cy="360" r="4"/><circle cx="681" cy="360" r="4"/><circle cx="714" cy="360" r="4"/><circle cx="747" cy="360" r="4"/><circle cx="780" cy="360" r="4"/></g>
<text x="450" y="86" text-anchor="middle" fill="#ffffff" font-family="Arial, sans-serif" font-size="46" font-weight="800">BMO Field</text>
<text x="450" y="132" text-anchor="middle" fill="#b8c7d9" font-family="Arial, sans-serif" font-size="24">AI generated stadium artwork · no copyrighted photo</text>
</svg>