<svg xmlns="http://www.w3.org/2000/svg" width="1200" height="700" viewBox="0 0 1200 700">
  <defs><linearGradient id="bg" x1="0" y1="0" x2="1" y2="1"><stop offset="0%" stop-color="#06281f"/><stop offset="55%" stop-color="#04120f"/><stop offset="100%" stop-color="#2b2108"/></linearGradient><radialGradient id="glow" cx="50%" cy="35%" r="55%"><stop offset="0%" stop-color="#f5d76e" stop-opacity="0.35"/><stop offset="45%" stop-color="#10b981" stop-opacity="0.18"/><stop offset="100%" stop-color="#000000" stop-opacity="0"/></radialGradient></defs>
  <rect width="1200" height="700" fill="url(#bg)"/><rect width="1200" height="700" fill="url(#glow)"/>
  <ellipse cx="600" cy="485" rx="410" ry="100" fill="#0b3b2d" stroke="#f5d76e" stroke-width="10" opacity="0.95"/>
  <ellipse cx="600" cy="485" rx="300" ry="62" fill="#092018" stroke="#ffffff" stroke-width="3" opacity="0.8"/>
  <path d="M210 450 C260 270 360 190 600 190 C840 190 940 270 990 450" fill="none" stroke="#f5d76e" stroke-width="34" stroke-linecap="round" opacity="0.95"/>
  <path d="M290 440 C335 315 425 260 600 260 C775 260 865 315 910 440" fill="none" stroke="#ffffff" stroke-width="10" stroke-linecap="round" opacity="0.35"/>
  <g opacity="0.55" stroke="#10b981" stroke-width="4"><line x1="310" y1="360" x2="890" y2="360"/><line x1="260" y1="410" x2="940" y2="410"/><line x1="380" y1="300" x2="820" y2="300"/></g>
  <circle cx="600" cy="420" r="50" fill="#f5d76e"/><path d="M600 370 L632 407 L620 456 L580 456 L568 407 Z" fill="#031c17"/>
  <text x="600" y="610" text-anchor="middle" font-family="Arial, Helvetica, sans-serif" font-size="54" font-weight="900" fill="#f5d76e">Miami Stadium</text>
</svg>